# xmcd
#
# Track frame offsets: 
#        150
#        13174
#        23542
#        35119
#        49713
#        63668
#        81025
#        92700
#        103915
#        115563
#        128019
#        139914
#        155232
#        169217
#        184967
#        197737
#        219769
#
# Disc length: 3086 seconds
#
# Revision: 0
# Processed by: cddbd v1.5.2PL0 Copyright (c) Steve Scherf et al.
# Submitted via: ExactAudioCopyFreeDBPlugin 1.0
#
DISCID=ed0c0c11
DTITLE=Various Artist - Blues Harp Heroes A Classic Blues Collection
DYEAR=1900
DGENRE=Blues
TTITLE0=Junior Wells - When The Cats Gone the Mice Play
TTITLE1=Frank Frost - Harp And Soul
TTITLE2=Big Walter Horton - Need My Baby
TTITLE3=Snooky Pryor - Real Fine Boogie
TTITLE4=George "Wild Child" Butler - Running Drunk
TTITLE5=Sonny Boy Williamson - Steady Rollin Man
TTITLE6=Jerry "Boogie" McCain - Honky Tonk 
TTITLE7=Little Willie Foster - Little Girl
TTITLE8=Buster Brown - Sugar Babe 
TTITLE9=Sonny Terry - Ride And Roll
TTITLE10=Jerry McCain - 728 Texas (Wherever The Action Is
TTITLE11=Frank Frost - My Back Scratcher
TTITLE12=Sonny Boy Williamson - Highway 69
TTITLE13=Floyd Jones With Snooky Pryor - Floyd's Blues
TTITLE14=Jimmy Reed - Just Can't Sleep At Night
TTITLE15=Sonny Boy Williamson - Take Youy Hand Out Of My Pocket
TTITLE16=Junior Wells and Earl Hooker - Calling All Blues 
EXTD=
EXTT0=
EXTT1=
EXTT2=
EXTT3=
EXTT4=
EXTT5=
EXTT6=
EXTT7=
EXTT8=
EXTT9=
EXTT10=
EXTT11=
EXTT12=
EXTT13=
EXTT14=
EXTT15=
EXTT16=
PLAYORDER=
